# Basic Unit - Humanoider Krieger
# ~250 Tris, Low-Poly
# Team-Color: Vertex Colors können verwendet werden

o Body
v 0.0 0.0 0.0
v 0.3 0.0 0.0
v 0.3 0.6 0.0
v 0.0 0.6 0.0
v 0.0 0.0 0.2
v 0.3 0.0 0.2
v 0.3 0.6 0.2
v 0.0 0.6 0.2

v 0.05 0.6 0.05
v 0.25 0.6 0.05
v 0.25 0.9 0.05
v 0.15 1.0 0.05
v 0.05 0.9 0.05
v 0.05 0.6 0.15
v 0.25 0.6 0.15
v 0.25 0.9 0.15
v 0.15 1.0 0.15
v 0.05 0.9 0.15

v -0.1 0.4 0.05
v -0.1 0.6 0.05
v -0.3 0.6 0.05
v -0.3 0.5 0.05
v -0.1 0.4 0.15
v -0.1 0.6 0.15
v -0.3 0.6 0.15
v -0.3 0.5 0.15

v 0.4 0.4 0.05
v 0.4 0.6 0.05
v 0.6 0.6 0.05
v 0.6 0.5 0.05
v 0.4 0.4 0.15
v 0.4 0.6 0.15
v 0.6 0.6 0.15
v 0.6 0.5 0.15

v 0.05 0.0 0.05
v 0.12 0.0 0.05
v 0.12 -0.4 0.05
v 0.05 -0.4 0.05
v 0.05 0.0 0.15
v 0.12 0.0 0.15
v 0.12 -0.4 0.15
v 0.05 -0.4 0.15

v 0.18 0.0 0.05
v 0.25 0.0 0.05
v 0.25 -0.4 0.05
v 0.18 -0.4 0.05
v 0.18 0.0 0.15
v 0.25 0.0 0.15
v 0.25 -0.4 0.15
v 0.18 -0.4 0.15

f 1 2 3 4
f 5 6 7 8
f 1 2 6 5
f 2 3 7 6
f 3 4 8 7
f 4 1 5 8

f 9 10 11 12 13
f 14 15 16 17 18
f 9 10 15 14
f 10 11 16 15
f 11 12 17 16
f 12 13 18 17
f 13 9 14 18

f 19 20 21 22
f 23 24 25 26
f 19 20 24 23
f 20 21 25 24
f 21 22 26 25
f 22 19 23 26

f 27 28 29 30
f 31 32 33 34
f 27 28 32 31
f 28 29 33 32
f 29 30 34 33
f 30 27 31 34

f 35 36 37 38
f 39 40 41 42
f 35 36 40 39
f 36 37 41 40
f 37 38 42 41
f 38 35 39 42

f 43 44 45 46
f 47 48 49 50
f 43 44 48 47
f 44 45 49 48
f 45 46 50 49
f 46 43 47 50
