# Fast Unit - Kleiner agiler Scout
# ~180 Tris, Low-Poly
# Schmal, niedrig, aerodynamisch

o Body
v 0.05 0.2 0.0
v 0.2 0.2 0.0
v 0.25 0.45 0.0
v 0.15 0.5 0.0
v 0.1 0.45 0.0
v 0.05 0.2 0.08
v 0.2 0.2 0.08
v 0.25 0.45 0.08
v 0.15 0.5 0.08
v 0.1 0.45 0.08

v 0.1 0.5 0.02
v 0.2 0.5 0.02
v 0.15 0.7 0.02
v 0.1 0.5 0.06
v 0.2 0.5 0.06
v 0.15 0.7 0.06

v -0.02 0.25 0.02
v -0.02 0.35 0.02
v -0.1 0.35 0.02
v -0.1 0.3 0.02
v -0.02 0.25 0.06
v -0.02 0.35 0.06
v -0.1 0.35 0.06
v -0.1 0.3 0.06

v 0.27 0.25 0.02
v 0.27 0.35 0.02
v 0.35 0.35 0.02
v 0.35 0.3 0.02
v 0.27 0.25 0.06
v 0.27 0.35 0.06
v 0.35 0.35 0.06
v 0.35 0.3 0.06

v 0.08 0.2 0.02
v 0.12 0.2 0.02
v 0.1 0.0 0.02
v 0.08 0.2 0.06
v 0.12 0.2 0.06
v 0.1 0.0 0.06

v 0.13 0.2 0.02
v 0.17 0.2 0.02
v 0.15 0.0 0.02
v 0.13 0.2 0.06
v 0.17 0.2 0.06
v 0.15 0.0 0.06

f 1 2 3 4 5
f 6 7 8 9 10
f 1 2 7 6
f 2 3 8 7
f 3 4 9 8
f 4 5 10 9
f 5 1 6 10

f 11 12 13
f 14 15 16
f 11 12 15 14
f 12 13 16 15
f 13 11 14 16

f 17 18 19 20
f 21 22 23 24
f 17 18 22 21
f 18 19 23 22
f 19 20 24 23
f 20 17 21 24

f 25 26 27 28
f 29 30 31 32
f 25 26 30 29
f 26 27 31 30
f 27 28 32 31
f 28 25 29 32

f 33 34 35
f 36 37 38
f 33 34 37 36
f 34 35 38 37
f 35 33 36 38

f 39 40 41
f 42 43 44
f 39 40 43 42
f 40 41 44 43
f 41 39 42 44
