# Basic Tower - Geschützturm
# ~300 Tris, Low-Poly
# Basis + Turm + Geschütz

o Base
v -0.4 0.0 -0.4
v 0.4 0.0 -0.4
v 0.4 0.0 0.4
v -0.4 0.0 0.4
v -0.3 0.3 -0.3
v 0.3 0.3 -0.3
v 0.3 0.3 0.3
v -0.3 0.3 0.3

v -0.25 0.3 -0.25
v 0.25 0.3 -0.25
v 0.25 0.3 0.25
v -0.25 0.3 0.25
v -0.2 0.9 -0.2
v 0.2 0.9 -0.2
v 0.2 0.9 0.2
v -0.2 0.9 0.2

v -0.15 0.9 -0.15
v 0.15 0.9 -0.15
v 0.15 0.9 0.15
v -0.15 0.9 0.15
v -0.25 1.0 -0.25
v 0.25 1.0 -0.25
v 0.25 1.0 0.25
v -0.25 1.0 0.25

v -0.05 1.0 -0.05
v 0.05 1.0 -0.05
v 0.05 1.2 0.05
v -0.05 1.2 0.05
v -0.08 1.0 -0.08
v 0.08 1.0 -0.08
v 0.08 1.2 -0.08
v -0.08 1.2 -0.08

v 0.05 1.1 -0.06
v 0.25 1.1 -0.06
v 0.25 1.15 -0.06
v 0.05 1.15 -0.06
v 0.05 1.1 0.06
v 0.25 1.1 0.06
v 0.25 1.15 0.06
v 0.05 1.15 0.06

f 1 2 3 4
f 5 6 7 8
f 1 2 6 5
f 2 3 7 6
f 3 4 8 7
f 4 1 5 8

f 9 10 11 12
f 13 14 15 16
f 9 10 14 13
f 10 11 15 14
f 11 12 16 15
f 12 9 13 16

f 17 18 19 20
f 21 22 23 24
f 17 18 22 21
f 18 19 23 22
f 19 20 24 23
f 20 17 21 24

f 25 26 27 28
f 29 30 31 32
f 25 26 30 29
f 26 27 31 30
f 27 28 32 31
f 28 25 29 32

f 33 34 35 36
f 37 38 39 40
f 33 34 38 37
f 34 35 39 38
f 35 36 40 39
f 36 33 37 40
