# Range Indicator - Transparente Anzeige
# Niedrige Poly-Anzahl für bessere Performance
# Kann als flache Scheibe oder Kugel verwendet werden

o Ring
# Äußerer Ring
v 1.0 0.0 0.0
v 0.866 0.0 0.5
v 0.5 0.0 0.866
v 0.0 0.0 1.0
v -0.5 0.0 0.866
v -0.866 0.0 0.5
v -1.0 0.0 0.0
v -0.866 0.0 -0.5
v -0.5 0.0 -0.866
v 0.0 0.0 -1.0
v 0.5 0.0 -0.866
v 0.866 0.0 -0.5

# Innerer Ring (0.9)
v 0.9 0.0 0.0
v 0.779 0.0 0.45
v 0.45 0.0 0.779
v 0.0 0.0 0.9
v -0.45 0.0 0.779
v -0.779 0.0 0.45
v -0.9 0.0 0.0
v -0.779 0.0 -0.45
v -0.45 0.0 -0.779
v 0.0 0.0 -0.9
v 0.45 0.0 -0.779
v 0.779 0.0 -0.45

f 1 13 14 2
f 2 14 15 3
f 3 15 16 4
f 4 16 17 5
f 5 17 18 6
f 6 18 19 7
f 7 19 20 8
f 8 20 21 9
f 9 21 22 10
f 10 22 23 11
f 11 23 24 12
f 12 24 13 1
