# Citadel Fortress - Zentrale Festung
# ~650 Tris, Low-Poly
# Erkennbare Silhouette, massiv, 4 Türme

o MainBase
v -0.8 0.0 -0.8
v 0.8 0.0 -0.8
v 0.8 0.0 0.8
v -0.8 0.0 0.8
v -0.7 0.5 -0.7
v 0.7 0.5 -0.7
v 0.7 0.5 0.7
v -0.7 0.5 0.7
v -0.5 0.8 -0.5
v 0.5 0.8 -0.5
v 0.5 0.8 0.5
v -0.5 0.8 0.5

v -0.5 0.8 -0.5
v -0.3 0.8 -0.5
v -0.3 1.2 -0.5
v -0.5 1.2 -0.5
v -0.5 0.8 -0.3
v -0.3 0.8 -0.3
v -0.3 1.2 -0.3
v -0.5 1.2 -0.3

v 0.3 0.8 -0.5
v 0.5 0.8 -0.5
v 0.5 1.2 -0.5
v 0.3 1.2 -0.5
v 0.3 0.8 -0.3
v 0.5 0.8 -0.3
v 0.5 1.2 -0.3
v 0.3 1.2 -0.3

v -0.5 0.8 0.3
v -0.3 0.8 0.3
v -0.3 1.2 0.3
v -0.5 1.2 0.3
v -0.5 0.8 0.5
v -0.3 0.8 0.5
v -0.3 1.2 0.5
v -0.5 1.2 0.5

v 0.3 0.8 0.3
v 0.5 0.8 0.3
v 0.5 1.2 0.3
v 0.3 1.2 0.3
v 0.3 0.8 0.5
v 0.5 0.8 0.5
v 0.5 1.2 0.5
v 0.3 1.2 0.5

v -0.3 0.5 -0.3
v 0.3 0.5 -0.3
v 0.3 0.5 0.3
v -0.3 0.5 0.3
v -0.2 0.0 -0.2
v 0.2 0.0 -0.2
v 0.2 0.0 0.2
v -0.2 0.0 0.2

f 1 2 3 4
f 5 6 7 8
f 1 2 6 5
f 2 3 7 6
f 3 4 8 7
f 4 1 5 8

f 9 10 11 12
f 5 6 10 9
f 6 7 11 10
f 7 8 12 11
f 8 5 9 12

f 13 14 15 16
f 17 18 19 20
f 13 14 18 17
f 14 15 19 18
f 15 16 20 19
f 16 13 17 20

f 21 22 23 24
f 25 26 27 28
f 21 22 26 25
f 22 23 27 26
f 23 24 28 27
f 24 21 25 28

f 29 30 31 32
f 33 34 35 36
f 29 30 34 33
f 30 31 35 34
f 31 32 36 35
f 32 29 33 36

f 37 38 39 40
f 41 42 43 44
f 37 38 42 41
f 38 39 43 42
f 39 40 44 43
f 40 37 41 44

f 45 46 47 48
f 49 50 51 52
f 45 46 50 49
f 46 47 51 50
f 47 48 52 51
f 48 45 49 52
